PathFileType	4	(X/Y/Z)	OpenSim_Sub09_EMGStiffKnee_Gyro.trc
DataRate	CameraRate	NumFrames	NumMarkers	Units	OrigDataRate	OrigDataStartFrame	OrigNumFrames
100	100	24	8	m	100	1	7584
Frame#	Time	torso_imu_offset_imu	pelvis_imu_offset_imu	tibia_r_imu_offset_imu	femur_r_imu_offset_imu	tibia_l_imu_offset_imu	femur_l_imu_offset_imu	toes_r_imu_offset_imu	toes_l_imu_offset_imu
				X1	Y1	Z1	X2	Y2	Z2	X3	Y3	Z3	X4	Y4	Z4	X5	Y5	Z5	X6	Y6	Z6	X7	Y7	Z7	X8		Y8	Z8	

1	0	-0.02044071	0.03368043	-0.01321428	-0.02221198	-0.04236238	-0.00919050	-0.02174843	0.03076951	-0.06152532	-0.00197765	0.05568493	0.01752652	-0.05241019	-0.03046953	0.00894749	-0.01804180	-0.07857056	0.01604109	0.01332708	0.01287008	-0.00830736	-0.00620397	0.02001794	0.00302612
2	0.01000000	-0.01875394	0.03311417	-0.01570103	-0.02478593	-0.04383687	-0.01002741	-0.03129017	0.05625948	-0.05148371	0.00389124	0.05336567	0.01864182	-0.03457908	-0.03043384	0.01197171	-0.02879082	-0.12410157	0.02338075	0.01395409	0.00822448	-0.00722217	0.00043045	0.01677894	0.00017951
3	0.02000000	-0.01554507	0.03566657	-0.01468431	-0.02534195	-0.04364111	-0.01139162	-0.02989074	0.07064388	-0.03361665	0.00070665	0.05342685	0.01769851	-0.02457872	-0.03152182	0.01625965	-0.03277390	-0.16511072	0.03573001	0.01441484	0.00848058	-0.01073090	0.00119197	0.01908315	0.00145957
4	0.03000000	-0.01024370	0.03557302	-0.02051452	-0.02767138	-0.04471866	-0.01277310	-0.01491210	0.07099965	-0.01649845	-0.00227593	0.04728015	0.01464453	-0.01956532	-0.03347531	0.01098428	-0.01658040	-0.18792056	0.04096749	0.01469502	0.01053681	-0.01321725	-0.00346469	0.01877075	-0.00134768
5	0.04000000	-0.01028382	0.03528891	-0.02296866	-0.02514107	-0.05036455	-0.01075316	-0.00276645	0.06492551	-0.01934224	0.01208026	0.05091741	0.01351211	-0.01531024	-0.03298718	0.01301474	0.00287011	-0.16964452	0.05213346	0.01871682	0.00479995	-0.01475639	-0.00474963	0.01768435	0.00468315
6	0.05000000	-0.01524873	0.03791710	-0.02613692	-0.02024024	-0.05325654	-0.01174123	-0.00603685	0.05883856	-0.02919692	0.01041467	0.05136099	0.00782390	-0.02414034	-0.03674045	0.00527770	0.02593548	-0.15483291	0.06093082	0.01742031	0.00925402	-0.01230604	-0.00231672	0.01904951	0.00149498
7	0.06000000	-0.02209222	0.04253602	-0.02998387	-0.01813617	-0.05831482	-0.01276873	-0.01310444	0.05277676	-0.04040552	0.01454257	0.05434003	0.00833991	-0.01922737	-0.03626015	0.00616611	0.04807805	-0.16546775	0.05906552	0.01720505	0.01022524	-0.01208647	-0.00711241	0.02175650	-0.00050143
8	0.07000000	-0.01972980	0.03851689	-0.03659182	-0.01813320	-0.05809354	-0.00904308	-0.01380202	0.05081087	-0.03965254	0.01156087	0.05952976	0.00144137	-0.01883549	-0.03736809	0.00517953	0.04594908	-0.20605809	0.07081339	0.01606734	0.00598693	-0.01100138	-0.00437496	0.01489161	0.00051067
9	0.08000000	-0.02129863	0.03884490	-0.03484755	-0.01701235	-0.05786909	-0.00950625	-0.02254815	0.04918750	-0.03104158	0.00662223	0.05871160	0.00051142	-0.00598350	-0.03936984	0.01212074	0.03740415	-0.23989154	0.06934728	0.01264211	0.00996519	-0.00912872	-0.00087273	0.01709850	-0.00113825
10	0.09000000	-0.02262979	0.04008997	-0.03523349	-0.01264516	-0.05490039	-0.00713729	-0.02912785	0.05753217	-0.02682747	0.01111060	0.05559410	-0.00132620	-0.00121594	-0.04562944	0.01734942	0.00509812	-0.26184889	0.06709283	0.01288268	0.00804235	-0.01225025	0.00444400	0.01187305	-0.00300462
11	0.10000000	-0.02087497	0.04133298	-0.03509921	-0.01035927	-0.05510890	-0.00991399	-0.03018813	0.07083212	-0.02568098	0.01533221	0.05738797	-0.00588999	0.00151646	-0.05107405	0.02509187	-0.02679210	-0.27059244	0.06292785	0.01049320	0.00788934	-0.00840357	0.00674347	0.01171917	-0.00402474
12	0.11000000	-0.02193407	0.04375372	-0.03419323	-0.00775204	-0.05877176	-0.00896770	-0.03419691	0.09229762	-0.01995076	0.01456533	0.05742334	-0.00185956	-0.01052647	-0.04656697	0.03140049	-0.02819076	-0.25784440	0.05898136	0.01121025	0.00437937	-0.01032304	0.00409631	0.01260419	-0.00646506
13	0.12000000	-0.02078222	0.04372718	-0.03726611	-0.00924869	-0.06064751	-0.01010469	-0.01886212	0.09829495	-0.01291586	0.01111628	0.05582032	-0.00187747	-0.04006266	-0.03606341	0.03218140	-0.00104649	-0.20049658	0.05978835	0.01048571	0.00110397	-0.01493981	-0.00077692	0.01192641	0.00240902
14	0.13000000	-0.02152214	0.04950963	-0.03575123	-0.01750565	-0.06051049	-0.00657060	-0.00673866	0.10660058	-0.00930074	0.02344389	0.05382600	0.00138395	-0.06778466	-0.03950187	0.00830755	0.01247263	-0.14879302	0.06441006	0.00704818	-0.00346263	-0.01184018	0.00114611	0.01474493	0.00321471
15	0.14000000	-0.01770445	0.05039770	-0.03771578	-0.02824445	-0.06285419	-0.00153871	0.00248556	0.11431613	-0.01328879	0.01265071	0.06043885	0.00042133	-0.09907618	-0.03726943	-0.00903192	0.00496493	-0.13314959	0.07797790	0.01461103	0.00343504	-0.01160106	-0.00749550	0.02040542	0.00250043
16	0.15000000	-0.01987034	0.05324044	-0.03293545	-0.04898507	-0.05972513	0.00070581	-0.00110502	0.10343837	-0.01798844	0.00156061	0.06127477	-0.00461363	-0.08232171	-0.03842919	-0.00896513	0.00502504	-0.17658381	0.08567776	0.00925709	-0.00237340	-0.01183645	0.00178378	0.01404227	-0.00033070
17	0.16000000	-0.01991138	0.05606431	-0.03491616	-0.05340207	-0.05825699	0.00094666	-0.02000757	0.10258981	-0.02147773	-0.00951821	0.06152012	-0.00202355	-0.05033848	-0.03545695	-0.00202724	-0.01069429	-0.21996479	0.08403659	0.01110252	0.00088238	-0.01523163	0.00646300	0.01546650	-0.00427114
18	0.17000000	-0.02342049	0.05548581	-0.03340651	-0.06201627	-0.05254287	0.00212474	-0.03402983	0.10444221	-0.02192729	-0.01925308	0.06385272	-0.00066714	-0.02085270	-0.03852238	-0.00728123	-0.01591723	-0.20821321	0.09473195	0.01168908	-0.00201206	-0.01479758	0.00858207	0.00988090	-0.00653083
19	0.18000000	-0.02475157	0.05698952	-0.03404064	-0.06195013	-0.04542866	-0.00308880	-0.05001423	0.10227219	-0.01030853	-0.02110163	0.06908843	0.00119724	0.00975691	-0.03671412	-0.01710257	-0.00647483	-0.17418151	0.10859560	0.00946471	-0.00066830	-0.01286791	0.00850037	0.01407194	-0.00663813
20	0.19000000	-0.02284625	0.04829371	-0.03097277	-0.06383645	-0.04211564	-0.00188219	-0.06354607	0.09731335	-0.00246973	-0.01554774	0.07499440	-0.00018207	0.01129878	-0.04751973	-0.01939326	-0.01973585	-0.16360477	0.12404878	0.01162793	-0.00513342	-0.01204463	0.00976100	0.01400332	-0.00441118
21	0.20000000	-0.01961238	0.04152558	-0.02617194	-0.05154381	-0.04033686	-0.00513934	-0.06915443	0.08052663	-0.00770205	-0.02695999	0.07976547	0.00219739	-0.00098163	-0.05094728	-0.02382971	-0.05144006	-0.17844411	0.13323421	0.00819987	0.00172661	-0.01316342	0.01091265	0.01482381	-0.01107224
22	0.21000000	-0.02550608	0.04397522	-0.02587020	-0.05782364	-0.03803927	-0.00338146	-0.07659151	0.07893179	-0.02156065	-0.03546047	0.07602447	0.00019753	-0.01803417	-0.05187238	-0.02557865	-0.05218406	-0.18569869	0.11467387	0.01222175	-0.00251339	-0.01124925	0.00664051	0.01284902	-0.00266282
23	0.22000000	-0.02886760	0.04235562	-0.03016051	-0.05861172	-0.03758487	0.00204147	-0.07568753	0.07593081	-0.02377507	-0.02755148	0.07545328	0.00683965	-0.03117227	-0.05253115	-0.02444502	-0.02451126	-0.19791355	0.09865109	0.01004119	0.00277886	-0.01219870	0.00854307	0.01424187	-0.00920698
24	0.23000000	-0.02121564	0.03331554	-0.02469283	-0.05219336	-0.03720509	0.00109986	-0.06423141	0.07231089	-0.02533929	-0.02294414	0.07360749	0.00523235	-0.05704482	-0.05527191	-0.02818244	-0.00652123	-0.20626968	0.08283100	0.00992593	-0.00223540	-0.00733376	0.01026466	0.01136914	-0.00641606
